<svg width="24" height="24" viewBox="0 0 24 24" fill="none" xmlns="http://www.w3.org/2000/svg">
<path d="M11.009 15.189L10.1153 15.2761C9.8053 15.3063 9.52185 15.0916 9.47846 14.7924L7.52601 1.30609C7.46888 0.910947 7.71753 0.55261 8.07935 0.51196L9.47626 0.355405C9.83954 0.314573 10.1682 0.609189 10.2067 1.00744L11.5171 14.5926C11.5463 14.8938 11.3196 15.1588 11.009 15.189Z" fill="#FCCF3F"/>
<path d="M8.68871 16.2136L7.80102 16.2578C7.49304 16.2731 7.21783 16.0497 7.18322 15.7551L5.62133 2.4787C5.57556 2.08997 5.83209 1.75324 6.19189 1.73273L7.57928 1.65344C7.93981 1.63294 8.25695 1.93726 8.28387 2.32764L9.208 15.6539C9.22851 15.9496 8.99688 16.1982 8.68871 16.2136Z" fill="#EFC03C"/>
<path d="M7.36159 17.1427L6.49148 17.2429C6.1899 17.2777 5.90023 17.0764 5.8409 16.7899L3.17946 3.9095C3.10182 3.53322 3.3243 3.18587 3.67494 3.13936L5.02883 2.9601C5.38094 2.91341 5.71822 3.18789 5.7781 3.56765L7.8254 16.5599C7.871 16.8488 7.66409 17.1077 7.36159 17.1427V17.1427Z" fill="#FCCF3F"/>
<path d="M13.0369 15.1889L13.9307 15.2761C14.2407 15.3063 14.5241 15.0915 14.5675 14.7923L16.5198 1.30624C16.5771 0.9111 16.3284 0.55258 15.9664 0.512114L14.5695 0.355375C14.2064 0.314726 13.8777 0.609159 13.8393 1.0076L12.5288 14.5926C12.4997 14.8938 12.7262 15.1587 13.0369 15.1889Z" fill="#FCCF3F"/>
<path d="M15.3572 16.2136L16.2449 16.2578C16.5529 16.2731 16.8281 16.0497 16.8627 15.7551L18.4246 2.4787C18.4704 2.08997 18.2139 1.75324 17.8541 1.73273L16.4665 1.65344C16.1061 1.63294 15.789 1.93726 15.7621 2.32764L14.8379 15.6539C14.8174 15.9496 15.0489 16.1982 15.3572 16.2136V16.2136Z" fill="#EFC03C"/>
<path d="M16.6842 17.1427L17.5545 17.2428C17.8561 17.2776 18.1457 17.0764 18.2049 16.7898L20.8663 3.90965C20.9442 3.53337 20.7217 3.18584 20.371 3.13933L19.0171 2.96007C18.665 2.91356 18.3278 3.18785 18.2679 3.56779L16.2204 16.5599C16.1748 16.8488 16.3817 17.1077 16.6842 17.1427V17.1427Z" fill="#FCCF3F"/>
<path d="M12.3278 16.6439H11.4408C11.133 16.6439 10.8796 16.4095 10.8721 16.1164L10.5344 2.91266C10.5245 2.52612 10.8106 2.20789 11.1705 2.20789H12.5572C12.917 2.20789 13.2041 2.52612 13.1953 2.91266L12.895 16.1164C12.8884 16.4095 12.6356 16.6439 12.3278 16.6439V16.6439Z" fill="#EFC03C"/>
<path d="M12.3657 17.8586L11.551 18.1928C11.2683 18.3087 10.9416 18.1923 10.817 17.9301L5.21064 6.13276C5.04676 5.78778 5.18079 5.39154 5.50983 5.25403L6.77838 4.72358C7.10779 4.58588 7.49854 4.76313 7.64557 5.11579L12.6749 17.1674C12.7868 17.4351 12.6486 17.7426 12.3657 17.8586V17.8586Z" fill="#FCCF3F"/>
<path d="M12.3741 19.9649L11.4946 20.0055C11.1894 20.0196 10.921 19.7999 10.8919 19.511L9.5823 6.51525C9.54403 6.13531 9.80349 5.80718 10.1596 5.78832L11.5327 5.71581C11.8892 5.69695 12.1974 5.99541 12.2174 6.37682L12.8981 19.418C12.9132 19.7078 12.6797 19.951 12.3741 19.9649V19.9649Z" fill="#EFC03C"/>
<path d="M16.1688 17.7856L17.0231 17.8238C17.3196 17.8372 17.5854 17.6294 17.6201 17.3564L19.17 5.11651C19.2151 4.76 18.9706 4.4522 18.6262 4.43462L17.298 4.36651C16.953 4.34893 16.6481 4.6289 16.6205 4.98669L15.6716 17.2685C15.6504 17.5424 15.872 17.7722 16.1688 17.7856V17.7856Z" fill="#EFC03C"/>
<path d="M12.8804 19.7689L13.8085 19.9152C14.1306 19.9662 14.4338 19.7484 14.489 19.4271L16.6686 6.69467C16.7249 6.36709 16.5022 6.05691 16.1739 6.00527L14.909 5.80587C14.5807 5.75405 14.2734 5.98074 14.226 6.3096L12.3831 19.0951C12.3365 19.4179 12.5581 19.7182 12.8804 19.7689V19.7689Z" fill="#FCCF3F"/>
<path d="M16.3436 8.21539C16.158 8.21539 15.993 8.33093 15.9265 8.50433C15.3241 10.0732 13.8039 11.1872 12.0229 11.1872C10.242 11.1872 8.72186 10.0732 8.11944 8.50433C8.05279 8.33093 7.88799 8.21539 7.70232 8.21539H3.6101C3.33361 8.21539 3.12359 8.46478 3.17065 8.73724L5.67736 23.2782C5.71435 23.4922 5.89983 23.6484 6.117 23.6484H17.9289C18.1461 23.6484 18.3316 23.4922 18.3686 23.2782L20.8753 8.73724C20.9224 8.4646 20.7123 8.21539 20.4357 8.21539H16.3436Z" fill="#FC4E51"/>
<path d="M20.4357 8.21539H17.6221C17.8987 8.21539 18.1086 8.46478 18.0615 8.73724L15.5548 23.2784C15.5178 23.4922 15.3323 23.6484 15.1154 23.6484H17.929C18.1461 23.6484 18.3316 23.4922 18.3686 23.2784L20.8753 8.73724C20.9224 8.4646 20.7123 8.21539 20.4357 8.21539V8.21539Z" fill="#EA3942"/>
<path d="M19.7146 15.47H4.33136L4.81805 18.2939H19.2277L19.7146 15.47Z" fill="#F3E8D7"/>
<path d="M19.7146 15.47H16.9008L16.4139 18.2939H19.2277L19.7146 15.47Z" fill="#E5D8C6"/>
<path d="M15.6874 16.966C15.6874 18.9897 14.0468 20.6303 12.0229 20.6303C9.99921 20.6303 8.35858 18.9897 8.35858 16.966C8.35858 14.9421 9.99921 13.3017 12.0229 13.3017C14.0468 13.3017 15.6874 14.9421 15.6874 16.966Z" fill="#EFA335"/>
<path d="M13.6783 13.6972C13.7787 14.0316 13.8334 14.3859 13.8334 14.7528C13.8334 16.7767 12.1928 18.4171 10.1689 18.4171C9.57312 18.4171 9.01099 18.2739 8.51367 18.0216C8.96704 19.5306 10.3663 20.6303 12.0229 20.6303C14.0468 20.6303 15.6872 18.9897 15.6872 16.966C15.6874 15.5381 14.87 14.3018 13.6783 13.6972V13.6972Z" fill="#FD8F31"/>
<path d="M12.0229 12.9501C9.80859 12.9501 8.00702 14.7517 8.00702 16.966C8.00702 19.1803 9.80859 20.9819 12.0229 20.9819C14.2374 20.9819 16.0388 19.1803 16.0388 16.966C16.0388 14.7517 14.2374 12.9501 12.0229 12.9501V12.9501ZM12.0229 20.2787C10.1962 20.2787 8.71014 18.7927 8.71014 16.966C8.71014 15.1393 10.1962 13.6533 12.0229 13.6533C13.8497 13.6533 15.3358 15.1393 15.3358 16.966C15.3358 18.7927 13.8497 20.2787 12.0229 20.2787Z" fill="black"/>
<path d="M20.4357 7.864H20.4082L21.2106 3.9807C21.2697 3.69469 21.2111 3.40044 21.0498 3.17358C20.8987 2.96081 20.6739 2.82494 20.417 2.79089L19.0631 2.61162C18.9613 2.59808 18.8599 2.6021 18.7617 2.6206L18.7736 2.51971C18.808 2.22692 18.7238 1.93487 18.5424 1.7188C18.3724 1.51629 18.1351 1.39654 17.874 1.38171L16.8715 1.32439C16.9045 1.03966 16.8279 0.753288 16.6588 0.534293C16.496 0.323722 16.264 0.191703 16.0056 0.162772L14.6087 0.00603421C14.3505 -0.0230796 14.094 0.0538248 13.8864 0.222282C13.6626 0.403739 13.5179 0.677665 13.4892 0.973747L13.3621 2.29101C13.3284 2.24102 13.2905 2.19396 13.2482 2.15075C13.0626 1.96087 12.8172 1.85631 12.5572 1.85631H11.1705C10.9862 1.85631 10.8098 1.90978 10.6564 2.00811L10.5566 0.973747C10.528 0.677665 10.3832 0.403739 10.1594 0.222282C9.95197 0.0538248 9.69562 -0.0228964 9.43708 0.00603421L8.04017 0.162772C7.78181 0.191703 7.54981 0.323722 7.38703 0.534293C7.21784 0.753288 7.1413 1.03966 7.17426 1.32439L6.17176 1.38171C5.91083 1.39654 5.67335 1.51629 5.50342 1.7188C5.32197 1.93487 5.23774 2.22692 5.27216 2.51971L5.28406 2.62078C5.18592 2.60229 5.08466 2.59808 4.98267 2.61162L3.62879 2.79089C3.37189 2.82494 3.14722 2.96081 2.99598 3.17358C2.83466 3.40044 2.77607 3.69469 2.83521 3.9807L3.63758 7.864H3.61011C3.37446 7.864 3.15217 7.96728 3.00019 8.14763C2.84821 8.32799 2.78412 8.56475 2.82422 8.79693L5.33094 23.3381C5.39722 23.7217 5.72773 24 6.11701 24H17.929C18.3182 24 18.6487 23.7217 18.7148 23.3381L21.2217 8.79693C21.2618 8.56475 21.1976 8.32799 21.0458 8.14763C20.8938 7.96728 20.6715 7.864 20.4357 7.864V7.864ZM18.6592 3.49383C18.726 3.36932 18.8516 3.29241 18.971 3.30871L20.3249 3.48778C20.4033 3.49822 20.4507 3.544 20.4767 3.5808C20.5252 3.6491 20.5419 3.74303 20.5221 3.83843L19.6904 7.86382H19.1765L19.5187 5.16082C19.5533 4.88854 19.4753 4.61553 19.3048 4.41192C19.1389 4.21343 18.9042 4.09679 18.6442 4.08343L18.59 4.08068L18.6592 3.49383ZM18.1796 4.76366L18.6083 4.78564C18.6883 4.78985 18.7381 4.83013 18.7658 4.86309C18.8117 4.91802 18.8313 4.99236 18.8212 5.07238L18.4677 7.864H16.8252L17.0153 6.75402C17.0546 6.52422 17.0085 6.29388 16.8873 6.09759L16.971 5.01379C16.979 4.9085 17.0371 4.81585 17.1174 4.76311C17.1656 4.73162 17.2218 4.71441 17.28 4.7177L18.1791 4.76366H18.1796ZM16.4341 2.00445C16.4387 2.00463 16.4432 2.00426 16.448 2.00463H16.4482L17.8341 2.08355C17.918 2.08849 17.9729 2.13372 18.004 2.17071C18.0613 2.23919 18.0873 2.33642 18.0754 2.43749L17.9676 3.35558C17.9676 3.35558 17.9674 3.35577 17.9674 3.35595L17.8865 4.04461L17.3159 4.01549C16.7809 3.98803 16.3121 4.41155 16.2698 4.95959L16.216 5.65594L15.8872 5.60412L16.1127 2.35198C16.1259 2.15899 16.2724 2.00317 16.4341 2.00445V2.00445ZM16.3222 6.63537L16.1058 7.89971C15.8765 7.97075 15.6887 8.14324 15.5984 8.37835C15.3237 9.09356 14.8455 9.70476 14.2152 10.146C14.1476 10.1933 14.0788 10.2376 14.0089 10.2801L14.5741 6.35979C14.5834 6.29442 14.6179 6.23693 14.671 6.19793C14.7241 6.15856 14.7891 6.14281 14.8543 6.15307L15.4539 6.24755C15.4541 6.24755 15.4545 6.24755 15.4548 6.24773L16.1191 6.35247C16.1843 6.36272 16.2415 6.39788 16.2799 6.45153C16.3184 6.50518 16.3334 6.57036 16.3222 6.63537V6.63537ZM13.4044 9.17504L14.189 1.04131C14.1998 0.931449 14.2507 0.832023 14.3293 0.768302C14.3718 0.733878 14.4415 0.694694 14.5303 0.704765L15.9274 0.86132C16.014 0.871024 16.0704 0.92266 16.1023 0.964042C16.1622 1.0415 16.1876 1.14788 16.1719 1.25591L16.1596 1.34051C16.1538 1.34234 16.1481 1.34454 16.1422 1.34637C16.1349 1.34875 16.1276 1.35131 16.1204 1.35387C16.0985 1.36138 16.0767 1.36962 16.0554 1.37878C16.0499 1.38097 16.0444 1.38335 16.0389 1.38592C15.9974 1.40441 15.9573 1.42565 15.9186 1.44964C15.9152 1.45165 15.9119 1.45385 15.9084 1.45605C15.8844 1.47143 15.8608 1.48772 15.8381 1.50512C15.8361 1.50658 15.8341 1.50787 15.832 1.50951C15.8198 1.51885 15.8079 1.52856 15.7961 1.53844C15.7936 1.54064 15.791 1.54284 15.7885 1.54504C15.7683 1.56243 15.7489 1.58037 15.73 1.59923C15.7253 1.604 15.7207 1.60857 15.7159 1.61352C15.7064 1.6234 15.6967 1.63348 15.6876 1.64391C15.6775 1.65527 15.6676 1.6668 15.6581 1.67852C15.6491 1.68951 15.6405 1.70049 15.6319 1.71166C15.6255 1.72027 15.6193 1.72906 15.6129 1.73785C15.6048 1.7492 15.5967 1.76092 15.5889 1.77282C15.5801 1.78637 15.5715 1.8001 15.5632 1.81402C15.5581 1.82262 15.5532 1.83123 15.5484 1.84002C15.5396 1.85577 15.5312 1.8717 15.5231 1.88799C15.5195 1.89568 15.5156 1.90356 15.5122 1.91143C15.5045 1.92791 15.4971 1.94475 15.4902 1.96178C15.4874 1.96874 15.4847 1.97552 15.4819 1.98247C15.4739 2.00371 15.4664 2.02532 15.4594 2.04711C15.4578 2.05242 15.4563 2.05791 15.4548 2.06341C15.4488 2.08337 15.4435 2.10369 15.4385 2.12438C15.4376 2.12878 15.4363 2.13317 15.4354 2.13775C15.4301 2.16155 15.4257 2.18572 15.4219 2.21007C15.4211 2.21557 15.4202 2.22124 15.4195 2.22674C15.416 2.25201 15.4131 2.27764 15.4113 2.30346L15.1901 5.49425L14.9636 5.45873C14.7112 5.41863 14.4589 5.48052 14.2535 5.63213C14.0479 5.78393 13.9146 6.00677 13.8781 6.25963L13.3945 9.61468L13.4044 9.17504ZM10.983 2.64202C11.0197 2.6043 11.0819 2.55944 11.1705 2.55944H12.5572C12.6458 2.55944 12.7084 2.60448 12.7454 2.64239C12.8102 2.70867 12.8461 2.80425 12.8439 2.90459L12.7055 8.98553L12.5684 6.35869C12.5541 6.08477 12.4395 5.8308 12.2457 5.64348C12.0449 5.44939 11.7854 5.35033 11.514 5.3648L10.9495 5.39464L10.9376 4.93322C10.9376 4.93322 10.9376 4.93322 10.9376 4.93304L10.8858 2.90368C10.8832 2.80334 10.9188 2.70794 10.983 2.64202ZM11.5512 6.06682C11.6505 6.06225 11.723 6.11608 11.757 6.14904C11.8226 6.21221 11.8614 6.29973 11.8663 6.39532L12.098 10.8342C12.0731 10.8345 12.048 10.8354 12.0229 10.8354C11.4296 10.8354 10.8541 10.7009 10.3314 10.4427L9.93201 6.48009C9.92231 6.38451 9.94904 6.29204 10.0053 6.22649C10.0373 6.18932 10.0931 6.14391 10.1781 6.13933L11.5512 6.06682ZM7.94349 0.964042C7.97553 0.922477 8.03193 0.871024 8.11854 0.86132L9.51545 0.704765C9.60462 0.694694 9.67402 0.733878 9.71668 0.768302C9.79505 0.832023 9.84614 0.931449 9.85676 1.04131L10.2351 4.96343L10.2471 5.43182L10.1409 5.43731C9.88074 5.45122 9.64307 5.56896 9.4715 5.76891C9.29078 5.97985 9.20362 6.26458 9.23237 6.55059L9.42573 8.4688L8.98957 7.42364L8.63453 2.30346C8.6327 2.27764 8.62977 2.25219 8.62629 2.22692C8.62556 2.22124 8.62464 2.21575 8.62391 2.21007C8.62006 2.18572 8.61567 2.16155 8.61036 2.13756C8.60944 2.13354 8.60834 2.12933 8.60743 2.1253C8.60248 2.10406 8.59699 2.08337 8.59095 2.06267C8.58948 2.05791 8.58802 2.05279 8.58655 2.04803C8.5796 2.0255 8.57191 2.00353 8.56348 1.98174C8.56129 1.97588 8.5589 1.97002 8.55652 1.96416C8.54883 1.94494 8.54059 1.92608 8.53199 1.90758C8.53034 1.90392 8.52888 1.90026 8.52704 1.89696C8.51734 1.87646 8.50672 1.85668 8.49573 1.83727C8.49225 1.83086 8.48859 1.82445 8.48493 1.81805C8.47376 1.79919 8.46223 1.78051 8.45014 1.76256C8.44684 1.75762 8.44337 1.75286 8.43989 1.74792C8.42982 1.73327 8.41938 1.71899 8.40858 1.70507C8.40418 1.69921 8.3996 1.69335 8.39521 1.68767C8.38184 1.67101 8.36811 1.6549 8.35383 1.63915C8.34907 1.63384 8.34412 1.62871 8.33918 1.6234C8.32673 1.61022 8.31428 1.59759 8.30128 1.58532C8.29743 1.58147 8.29358 1.57763 8.28956 1.57378C8.27363 1.55895 8.25733 1.54485 8.24048 1.53094C8.23536 1.52673 8.23023 1.5227 8.22492 1.51849C8.20753 1.50457 8.18958 1.4912 8.17145 1.47839C8.16907 1.47692 8.16669 1.47546 8.1645 1.47399C8.14673 1.46191 8.12861 1.45037 8.11011 1.43957C8.10627 1.43719 8.10242 1.43499 8.09858 1.43279C8.07825 1.42089 8.05738 1.4099 8.03614 1.39965C8.03376 1.39837 8.03119 1.39727 8.02881 1.39617C8.00666 1.38573 7.98432 1.37585 7.96143 1.36706C7.96143 1.36687 7.96125 1.36687 7.96107 1.36687C7.93744 1.35772 7.91327 1.34948 7.88874 1.34215C7.88782 1.34197 7.88709 1.34161 7.88636 1.34124L7.87391 1.25591C7.85834 1.14788 7.88361 1.0415 7.94349 0.964042ZM6.04194 2.17071C6.07307 2.13372 6.12781 2.08831 6.21186 2.08373L7.59852 2.00445H7.59943C7.60108 2.00445 7.60291 2.00463 7.60456 2.00445C7.76935 1.9995 7.91968 2.15606 7.93323 2.35198L8.14454 5.39849L7.97004 4.98028C7.86439 4.72741 7.67103 4.52672 7.4253 4.41558C7.3949 4.40166 7.36396 4.38976 7.33283 4.37896C7.331 4.37841 7.32917 4.37768 7.32734 4.37694C7.29731 4.36687 7.26728 4.35863 7.23688 4.35131C7.23395 4.35076 7.23084 4.34984 7.22791 4.34911C7.19825 4.34234 7.16858 4.33739 7.13874 4.33337C7.13508 4.33282 7.13123 4.33227 7.12757 4.3319C7.09827 4.32842 7.06879 4.32622 7.0395 4.32549C7.03528 4.32549 7.03126 4.32531 7.02723 4.32513C7.02228 4.32513 7.01734 4.32476 7.01258 4.32476C6.99702 4.32476 6.98163 4.32622 6.96607 4.32696C6.95289 4.32769 6.93952 4.32787 6.92634 4.32897C6.90656 4.3308 6.88697 4.3341 6.86719 4.33703C6.85493 4.33904 6.84247 4.34014 6.83021 4.34252C6.80878 4.34692 6.78754 4.35259 6.76612 4.35827C6.75605 4.36101 6.74579 4.36303 6.73554 4.36596C6.70423 4.37548 6.67328 4.38647 6.64271 4.39928L6.22193 4.57525L6.15839 4.03564L5.97034 2.43767C5.95862 2.33642 5.98463 2.23919 6.04194 2.17071ZM5.64533 5.5783L5.85352 5.49114L6.06281 5.4038H6.06299L6.91407 5.04784C7.00599 5.00957 7.09223 5.03649 7.13544 5.0559C7.21839 5.09362 7.28431 5.16283 7.32129 5.25109L9.07197 9.44622C8.80884 9.12835 8.59772 8.76909 8.44776 8.37835C8.32783 8.06579 8.03522 7.86382 7.70234 7.86382H6.42261L5.52833 5.98186C5.48713 5.89507 5.48108 5.79912 5.51203 5.71838C5.51844 5.70116 5.52796 5.68175 5.54114 5.66253C5.5633 5.63048 5.59626 5.59881 5.64533 5.5783ZM3.52387 3.83843C3.5041 3.74303 3.52057 3.6491 3.5691 3.5808C3.59528 3.54418 3.64271 3.49822 3.72108 3.48797L5.07496 3.30871C5.19398 3.29314 5.31977 3.3695 5.38679 3.49401L5.46113 4.12517L5.54719 4.85723L5.37415 4.92974C5.13373 5.03026 4.94953 5.22106 4.85541 5.46715C4.75599 5.72661 4.7699 6.02416 4.89332 6.28362L5.64423 7.864H4.35554L3.52387 3.83843ZM20.5289 8.67754L19.4185 15.1185H17.1193C16.9252 15.1185 16.7677 15.2757 16.7677 15.47C16.7677 15.6641 16.9252 15.8216 17.1193 15.8216H19.2973L18.9316 17.9423H17.1656C16.9713 17.9423 16.814 18.0996 16.814 18.2939C16.814 18.4881 16.9713 18.6454 17.1656 18.6454H18.8104L18.0222 23.2185C18.0143 23.2639 17.9751 23.2969 17.929 23.2969H6.11701C6.07087 23.2969 6.03168 23.2639 6.02381 23.2185L5.23554 18.6454H6.88038C7.07447 18.6454 7.23194 18.4881 7.23194 18.2939C7.23194 18.0996 7.07447 17.9423 6.88038 17.9423H5.11432L4.74866 15.8216H6.93751C7.1316 15.8216 7.28907 15.6641 7.28907 15.47C7.28907 15.2757 7.1316 15.1185 6.93751 15.1185H4.62745L3.5171 8.67754C3.51087 8.64165 3.52497 8.61602 3.53797 8.60064C3.55079 8.58526 3.57386 8.56695 3.6103 8.56695H7.70234C7.74171 8.56695 7.7765 8.59185 7.79133 8.6303C8.11634 9.4768 8.68213 10.2001 9.42774 10.7219C10.1907 11.2562 11.0883 11.5386 12.0231 11.5386C12.0711 11.5386 12.1196 11.5375 12.1686 11.5358C12.1915 11.5351 12.2146 11.5342 12.2377 11.5331C12.2578 11.532 12.2781 11.5309 12.2985 11.5296C12.5123 11.5168 12.7235 11.4893 12.9311 11.447C12.9318 11.4468 12.9324 11.4468 12.9329 11.4466C13.5355 11.324 14.1072 11.0797 14.6182 10.7219C15.3638 10.2001 15.9296 9.4768 16.2546 8.6303C16.2695 8.59185 16.3044 8.56695 16.3436 8.56695H20.4359C20.4721 8.56695 20.4952 8.58526 20.508 8.60045C20.521 8.61602 20.5349 8.64165 20.5289 8.67754V8.67754Z" fill="black"/>
</svg>
