<svg width="24" height="24" viewBox="0 0 24 24" fill="none" xmlns="http://www.w3.org/2000/svg">
<g clip-path="url(#clip0)">
<path d="M21.243 14.5884H2.67151C2.03357 14.5884 1.5163 15.1055 1.5163 15.7436V16.7555C1.5163 17.0065 1.71991 17.2101 1.97113 17.2101H21.9436C22.1946 17.2101 22.3982 17.0065 22.3982 16.7555V15.7436C22.3982 15.1055 21.8811 14.5884 21.243 14.5884V14.5884Z" fill="#912C2C"/>
<path d="M21.243 14.5884H19.687V17.2103H21.9436C22.1948 17.2103 22.3982 17.0067 22.3982 16.7555V15.7436C22.3982 15.1055 21.8811 14.5884 21.243 14.5884V14.5884Z" fill="#7C1E1E"/>
<path d="M22.0199 13.2083C22.6214 13.2083 23.1285 13.7079 23.129 14.335C23.1296 15.2306 22.1086 15.7045 20.9226 15.5309C19.8148 15.3688 19.8009 14.859 18.679 14.859C17.5573 14.859 17.5573 15.5309 16.4354 15.5309C15.3137 15.5309 15.3137 14.859 14.192 14.859C13.0703 14.859 13.0703 15.5309 11.9486 15.5309C10.8267 15.5309 10.8269 14.859 9.70497 14.859C8.58327 14.859 8.58327 15.5309 7.46156 15.5309C6.33985 15.5309 6.33986 14.859 5.21797 14.859C4.09626 14.859 4.08216 15.3686 2.97455 15.5309C1.78839 15.7045 0.767578 15.2306 0.768128 14.335C0.768494 13.7079 1.27551 13.2083 1.87702 13.2083H22.0199Z" fill="#A0E557"/>
<path d="M23.129 14.335C23.1285 13.7079 22.6214 13.2083 22.0199 13.2083H20.3366V15.386C20.4958 15.4448 20.6836 15.4959 20.9226 15.5309C22.1086 15.7045 23.1296 15.2306 23.129 14.335Z" fill="#93CC4A"/>
<path d="M22.6553 16.9774H1.25098C0.728577 16.9774 0.305237 17.4009 0.305237 17.9231C0.305237 20.6386 2.50653 22.8399 5.22199 22.8399H18.6843C21.3998 22.8399 23.6011 20.6386 23.6011 17.9231C23.6011 17.4009 23.1775 16.9774 22.6553 16.9774V16.9774Z" fill="#EFA335"/>
<path d="M22.6553 16.9774H20.8946V18.8691C20.8946 21.0621 19.1166 22.8401 16.9236 22.8401H18.6843C21.3998 22.8401 23.6011 20.6386 23.6011 17.9231C23.6011 17.4009 23.1775 16.9774 22.6553 16.9774V16.9774Z" fill="#FD8F31"/>
<path d="M21.2388 12.0044H2.66748C2.02936 12.0044 1.51227 11.4873 1.51227 10.8492V9.83737C1.51227 9.58615 1.71588 9.38254 1.96692 9.38254H21.9394C22.1904 9.38254 22.394 9.58615 22.394 9.83737V10.8492C22.394 11.4873 21.8769 12.0044 21.2388 12.0044Z" fill="#FC4E51"/>
<path d="M21.9394 9.38254H19.691V11.3041C19.691 11.6908 19.3775 12.0044 18.9906 12.0044H21.239C21.8769 12.0044 22.3942 11.4873 22.3942 10.8492V9.83737C22.394 9.58615 22.1904 9.38254 21.9394 9.38254V9.38254Z" fill="#EA3942"/>
<path d="M22.2144 11.7849H1.71367C1.24877 11.7849 0.853989 12.1654 0.862595 12.6301C0.871018 13.0809 1.23906 13.4436 1.69188 13.4436H14.7173C14.929 13.4436 15.1335 13.5193 15.2943 13.657L17.1429 15.241C17.6829 15.7037 18.4889 15.6689 18.9873 15.1617L20.4146 13.709C20.5813 13.5392 20.8092 13.4436 21.0471 13.4436H22.1928C22.6575 13.4436 23.0525 13.0633 23.0437 12.5984C23.0353 12.1476 22.6672 11.7849 22.2144 11.7849V11.7849Z" fill="#FCCF3F"/>
<path d="M11.9531 1.12555C1.10816 1.12958 0.305237 8.28371 0.305237 9.29683C0.305237 9.81923 0.728761 10.2426 1.25098 10.2426H22.6553C23.1775 10.2426 23.6011 9.81923 23.6011 9.29683C23.6011 8.28371 22.7981 1.12958 11.9531 1.12555Z" fill="#EFA335"/>
<path d="M23.6009 9.26991C23.6009 9.26698 23.6007 9.26387 23.6007 9.26076C23.6007 9.25398 23.6005 9.24703 23.6003 9.23988C23.6001 9.23659 23.6001 9.23311 23.6 9.22963C23.5998 9.22231 23.5996 9.21462 23.5992 9.20693C23.5992 9.20326 23.599 9.19978 23.5989 9.19612C23.5985 9.1877 23.5981 9.17909 23.5978 9.1703C23.5976 9.16701 23.5974 9.1639 23.5972 9.16078C23.5968 9.15035 23.5961 9.13973 23.5956 9.12874C23.5954 9.12673 23.5954 9.12489 23.5952 9.12306C23.5912 9.05458 23.5846 8.97493 23.5749 8.88576C23.5749 8.88558 23.5749 8.88539 23.5749 8.88539C23.376 7.05745 21.8251 1.12921 11.9531 1.12555C11.4833 1.12573 11.0327 1.13965 10.5998 1.16547C17.1698 1.55914 19.5718 4.79481 20.4315 7.09462C20.7931 8.06233 20.0695 9.09248 19.0366 9.09248H1.25098C0.861512 9.09248 0.527161 8.85683 0.382141 8.52046C0.321899 8.87935 0.305237 9.15144 0.305237 9.29683C0.305237 9.81923 0.728761 10.2426 1.25098 10.2426H22.6553C23.1775 10.2426 23.6011 9.81923 23.6011 9.29683C23.6011 9.28841 23.6011 9.27925 23.6009 9.26991V9.26991Z" fill="#FD8F31"/>
<path d="M22.2144 11.7849H20.3366V13.7882L20.4146 13.709C20.5813 13.5392 20.8092 13.4436 21.0471 13.4436H22.1928C22.6575 13.4436 23.0525 13.0631 23.0437 12.5984C23.0353 12.1476 22.6672 11.7849 22.2144 11.7849Z" fill="#EFC03C"/>
<path d="M22.7504 16.6291V15.7436C22.7504 15.6905 22.7465 15.6376 22.741 15.5852C22.8284 15.5329 22.9095 15.475 22.9831 15.4113C23.3092 15.1293 23.4813 14.757 23.4809 14.3348C23.4808 13.9735 23.3478 13.6291 23.118 13.3631C23.2984 13.1488 23.4009 12.876 23.3956 12.5918C23.3863 12.087 23.0536 11.6567 22.5991 11.4981C22.6934 11.3015 22.7461 11.0814 22.7461 10.8492V10.5912C23.4196 10.5443 23.9532 9.98183 23.9532 9.29683C23.9532 9.19777 23.9323 6.84486 22.1172 4.61079C21.1947 3.47535 19.9736 2.57611 18.4873 1.93799C16.6895 1.1662 14.4912 0.774353 11.953 0.773438C8.75612 0.774536 6.11628 1.3927 4.1067 2.61036C3.94025 2.71125 3.88715 2.92768 3.98786 3.09394C4.08875 3.2602 4.30518 3.31348 4.47144 3.21259C6.3697 2.0625 8.88686 1.47876 11.953 1.47766C14.395 1.47858 16.4998 1.85102 18.2095 2.58509C19.5899 3.1778 20.7208 4.00873 21.5706 5.05482C23.2299 7.097 23.2489 9.20802 23.2489 9.29683C23.2489 9.62422 22.9827 9.89046 22.6553 9.89046H1.25098C0.923586 9.89046 0.65735 9.62422 0.65735 9.29683C0.65735 9.20839 0.668886 8.40034 1.07154 7.28981C1.5119 6.07472 2.2284 5.01801 3.20069 4.14918C3.34571 4.01954 3.35834 3.79688 3.22871 3.65204C3.09907 3.50702 2.87659 3.49457 2.73157 3.62403C-0.0151977 6.07875 -0.046875 9.16664 -0.046875 9.29683C-0.046875 9.98183 0.486695 10.5443 1.15998 10.5912V10.8492C1.15998 11.0834 1.21381 11.3053 1.30957 11.5033C1.13727 11.5648 0.978518 11.6648 0.848513 11.7971C0.624757 12.0251 0.504823 12.3234 0.510682 12.6367C0.515626 12.9082 0.612855 13.1622 0.778749 13.3636C0.549135 13.6297 0.416383 13.9741 0.4162 14.3348C0.415833 14.757 0.587953 15.1293 0.914064 15.4113C0.992251 15.4789 1.07904 15.5398 1.17243 15.5946C1.16748 15.644 1.16419 15.6936 1.16419 15.7436V16.6284C0.488893 16.6734 -0.046875 17.2367 -0.046875 17.9231C-0.046875 20.8285 2.31684 23.192 5.222 23.192H18.6843C21.5895 23.192 23.9532 20.8285 23.9532 17.9231C23.9532 17.2396 23.4218 16.678 22.7504 16.6291V16.6291ZM22.5226 14.8786C22.1988 15.1586 21.6054 15.2751 20.9735 15.1826C20.5262 15.117 20.2907 14.9925 20.0415 14.8605C19.9842 14.8303 19.9263 14.7995 19.8659 14.7697L20.6657 13.9556C20.7655 13.854 20.9045 13.7957 21.0471 13.7957H22.1926C22.3021 13.7957 22.4098 13.7809 22.5145 13.7514C22.6789 13.8975 22.7767 14.1103 22.7769 14.3354C22.7769 14.5498 22.6914 14.7327 22.5226 14.8786V14.8786ZM1.8642 10.5949H22.0421V10.8492C22.0421 11.1226 21.9046 11.3643 21.6953 11.5093C21.6894 11.5135 21.6834 11.5174 21.6774 11.5212C21.6623 11.5311 21.647 11.5404 21.6314 11.5492C21.6259 11.5523 21.6206 11.5554 21.6153 11.5584C21.5953 11.569 21.575 11.5789 21.5541 11.5879C21.5528 11.5884 21.5517 11.5889 21.5506 11.5895C21.5274 11.5992 21.5036 11.608 21.4792 11.6155C21.4765 11.6164 21.4737 11.6171 21.471 11.6179C21.4507 11.6241 21.43 11.6294 21.4089 11.6338C21.4023 11.6353 21.3959 11.6366 21.3893 11.6378C21.3712 11.6411 21.3529 11.6441 21.3344 11.6463C21.3274 11.647 21.3207 11.6479 21.3137 11.6486C21.289 11.651 21.2641 11.6525 21.2388 11.6525H2.6673C2.22455 11.6525 1.8642 11.2921 1.8642 10.8494V10.5949ZM1.35114 12.2904C1.4469 12.193 1.57892 12.137 1.71369 12.137H1.88471C2.11304 12.2761 2.38093 12.3565 2.66749 12.3565H21.2388C21.2701 12.3565 21.3011 12.3552 21.3318 12.3534C21.3417 12.3529 21.3514 12.352 21.3611 12.3512C21.3827 12.3494 21.4043 12.3472 21.4258 12.3444C21.4362 12.3432 21.4468 12.3421 21.4573 12.3406C21.4847 12.3366 21.512 12.332 21.5389 12.3265C21.5503 12.3241 21.5614 12.3214 21.5728 12.3188C21.5913 12.3146 21.6098 12.3102 21.6281 12.3053C21.642 12.3016 21.6559 12.2976 21.6697 12.2935C21.6845 12.2891 21.6991 12.2842 21.7138 12.2794C21.7279 12.2749 21.7418 12.2703 21.7557 12.2653C21.7797 12.2564 21.8035 12.247 21.8269 12.2371C21.841 12.2311 21.855 12.2245 21.8689 12.2181C21.8821 12.2121 21.8951 12.2058 21.9079 12.1994C21.9216 12.1925 21.9353 12.1857 21.9489 12.1784C21.9643 12.1701 21.9795 12.1613 21.9947 12.1525C22.0038 12.1472 22.0132 12.1425 22.0223 12.137H22.2144C22.4728 12.137 22.6868 12.347 22.6916 12.605C22.6951 12.7848 22.5852 12.9557 22.412 13.0399C22.412 13.0399 22.412 13.0399 22.4118 13.0399C22.3413 13.0741 22.2675 13.0917 22.1926 13.0917H21.0469C20.7168 13.0917 20.3947 13.2266 20.1632 13.4623L18.7359 14.9151C18.3957 15.2615 17.8563 15.3084 17.4624 15.042C17.4538 15.0361 17.4454 15.0302 17.437 15.0242C17.415 15.0085 17.3932 14.992 17.3722 14.974C17.3722 14.9738 17.372 14.9737 17.3718 14.9737L15.5232 13.3896C15.2989 13.1975 15.0127 13.0917 14.7173 13.0917H1.6919C1.61939 13.0917 1.54908 13.075 1.48261 13.0424H1.48242C1.32056 12.963 1.21802 12.8024 1.21472 12.6235C1.21234 12.5008 1.26087 12.3825 1.35114 12.2904V12.2904ZM1.12042 14.3352C1.12042 14.1116 1.21729 13.8999 1.38025 13.7538C1.48133 13.7816 1.58551 13.7957 1.6919 13.7957H14.7173C14.8449 13.7957 14.9684 13.8415 15.0652 13.9243L16.5271 15.1771C16.4978 15.1782 16.4673 15.1787 16.4356 15.1787C15.9721 15.1787 15.7614 15.0526 15.4948 14.8929C15.1927 14.712 14.8502 14.5069 14.192 14.5069C13.5339 14.5069 13.1915 14.712 12.8894 14.8929C12.6228 15.0526 12.4122 15.1787 11.9486 15.1787C11.4849 15.1787 11.2744 15.0526 11.0078 14.8929C10.7056 14.712 10.3632 14.5069 9.70516 14.5069C9.04689 14.5069 8.70449 14.712 8.40236 14.8929C8.13576 15.0526 7.92519 15.1787 7.46156 15.1787C6.99794 15.1787 6.78737 15.0526 6.52077 14.8929C6.21864 14.712 5.87623 14.5069 5.21797 14.5069C4.52253 14.5069 4.18324 14.6867 3.85511 14.8605C3.60609 14.9923 3.3708 15.117 2.92347 15.1824C2.29157 15.2749 1.69812 15.1584 1.37458 14.8786C1.20575 14.7327 1.12024 14.5498 1.12042 14.3352V14.3352ZM18.6843 22.488H5.222C2.70502 22.488 0.65735 20.4401 0.65735 17.9231C0.65735 17.5957 0.923586 17.3295 1.25098 17.3295H17.0353C17.2297 17.3295 17.3874 17.1718 17.3874 16.9774C17.3874 16.7829 17.2297 16.6253 17.0353 16.6253H1.86841V15.8542C2.06855 15.896 2.28168 15.9179 2.50306 15.9179C2.67335 15.9179 2.84839 15.9051 3.02564 15.8793C3.59309 15.7962 3.90748 15.6297 4.18488 15.4829C4.47144 15.3311 4.69776 15.2111 5.21815 15.2111C5.68159 15.2111 5.89235 15.3373 6.15895 15.497C6.46107 15.6779 6.80348 15.883 7.46175 15.883C8.11983 15.883 8.46224 15.6779 8.76436 15.497C9.03096 15.3373 9.24153 15.2111 9.70516 15.2111C10.1688 15.2111 10.3794 15.3373 10.646 15.497C10.9481 15.6779 11.2905 15.883 11.9488 15.883C12.6068 15.883 12.9492 15.6779 13.2514 15.497C13.518 15.3373 13.7285 15.2111 14.1922 15.2111C14.6558 15.2111 14.8664 15.3373 15.133 15.497C15.4351 15.6779 15.7775 15.883 16.4356 15.883C16.7491 15.883 17.012 15.8376 17.2647 15.7398C17.5029 15.8577 17.7624 15.9167 18.0218 15.9167C18.4651 15.9167 18.9073 15.7456 19.2386 15.4085L19.3371 15.3084C19.4695 15.3551 19.585 15.4157 19.7124 15.4831C19.9898 15.6299 20.3042 15.7962 20.8717 15.8793C21.0489 15.9053 21.224 15.9179 21.3943 15.9179C21.6221 15.9179 21.841 15.8947 22.0463 15.8506V16.6253H18.6737C18.4792 16.6253 18.3216 16.7829 18.3216 16.9774C18.3216 17.1718 18.4792 17.3295 18.6737 17.3295H22.6553C22.9827 17.3295 23.2491 17.5957 23.2491 17.9231C23.2489 20.4401 21.2013 22.488 18.6843 22.488V22.488Z" fill="black"/>
</g>
<defs>
<clipPath id="clip0">
<rect width="24" height="23.9532" fill="white"/>
</clipPath>
</defs>
</svg>
