<svg width="24" height="24" viewBox="0 0 24 24" fill="none" xmlns="http://www.w3.org/2000/svg">
<g clip-path="url(#clip0)">
<path d="M22.6428 6.35704C22.3378 6.05199 21.8434 6.05199 21.5385 6.35704L22.4041 5.49132C23.4803 4.41502 23.4803 2.67021 22.4041 1.59392C21.3279 0.517807 19.5829 0.517807 18.5068 1.59392L17.6413 2.45964C17.9462 2.15459 17.9462 1.6602 17.6413 1.35533C16.3004 0.0144501 14.1266 0.0144501 12.7857 1.35533L1.35718 12.7839C0.0162964 14.1247 0.0162964 16.2986 1.35718 17.6393C1.66205 17.9441 2.15662 17.9441 2.46149 17.6393L1.59595 18.5048C0.519653 19.5811 0.519653 21.3261 1.59595 22.4022C2.67206 23.4785 4.41705 23.4785 5.49316 22.4022L6.3587 21.5365C6.05383 21.8415 6.05383 22.3359 6.3587 22.641C7.69958 23.9817 9.87341 23.9817 11.2143 22.641L22.6428 11.2123C23.9837 9.87157 23.9837 7.69774 22.6428 6.35704V6.35704Z" fill="#EFA335"/>
<path d="M1.59595 22.4024C0.519653 21.3261 0.519653 19.5811 1.59595 18.505L18.5068 1.59412C19.5829 0.517822 21.3279 0.517822 22.4041 1.59412C23.4803 2.67023 23.4803 4.41522 22.4041 5.49133L5.49316 22.4024C4.41705 23.4785 2.67206 23.4785 1.59595 22.4024Z" fill="#FC4E51"/>
<path d="M22.4041 1.59412C22.0567 1.24658 21.6396 1.01202 21.1978 0.888977C21.4561 1.81586 21.2216 2.85114 20.4928 3.58008L3.58173 20.491C2.85297 21.2197 1.8175 21.4543 0.890808 21.1959C1.01385 21.6378 1.24841 22.0549 1.59576 22.4024C2.67206 23.4785 4.41687 23.4785 5.49316 22.4024L22.4041 5.49133C23.4803 4.41522 23.4803 2.67023 22.4041 1.59412Z" fill="#EA3942"/>
<path d="M17.6413 1.35535C17.6362 1.35041 17.6312 1.34528 17.6261 1.34034C16.8757 0.599124 15.6627 0.615421 14.9169 1.36121L1.36285 14.915C0.617243 15.6608 0.600947 16.8739 1.34216 17.6243C1.3471 17.6294 1.35223 17.6343 1.35717 17.6395C1.66204 17.9443 2.15661 17.9443 2.46148 17.6395L17.6413 2.45966C17.9462 2.15479 17.9462 1.66022 17.6413 1.35535V1.35535Z" fill="#FD8F31"/>
<path d="M14.6023 3.7465C14.2954 4.05339 13.7534 3.82451 13.2631 4.18632C12.4459 4.78929 12.5096 5.2498 11.9522 5.80718C11.2432 6.51616 10.7924 6.44274 10.2953 6.93987C9.49074 7.74443 9.579 8.45378 9.05477 9.05291C8.45565 9.57714 7.7463 9.48888 6.94173 10.2934C6.4446 10.7906 6.51802 11.2414 5.80904 11.9504C5.25167 12.5077 4.79116 12.444 4.18801 13.2612C3.82637 13.7516 4.05526 14.2936 3.74837 14.6005C3.09963 15.2492 2.14601 15.8238 3.22066 16.8801L10.0514 10.0496L16.882 3.21879C15.8256 2.14433 15.2511 3.09776 14.6023 3.7465Z" fill="#A0E557"/>
<path d="M22.9274 6.68079C22.7604 7.11969 22.5009 7.53149 22.1475 7.88507L7.8869 22.1457C7.53333 22.4991 7.12152 22.7585 6.6828 22.9257C8.02954 23.9729 9.97668 23.8788 11.2143 22.641L22.6428 11.2125C23.8804 9.97467 23.9747 8.02771 22.9274 6.68079Z" fill="#FD8F31"/>
<path d="M20.2516 9.39587C19.9448 9.70276 20.1736 10.2448 19.8118 10.7351C19.2089 11.5523 18.7484 11.4886 18.191 12.046C17.482 12.7549 17.5554 13.2057 17.0583 13.7031C16.2537 14.5074 15.5444 14.4192 14.9453 14.9434C14.421 15.5427 14.5093 16.2521 13.7047 17.0565C13.2076 17.5536 12.7568 17.4803 12.0478 18.1891C11.4904 18.7465 11.5541 19.2072 10.7369 19.8102C10.2466 20.172 9.70459 19.9429 9.39771 20.2498C8.74896 20.8986 8.17438 21.8522 7.11804 20.7775L20.7794 7.11621C21.8538 8.17255 20.9004 8.74713 20.2516 9.39587V9.39587Z" fill="#A0E557"/>
<path d="M20.66 3.83076C20.2328 4.25813 19.8439 4.26985 19.3515 4.28487C18.8077 4.30135 18.1913 4.32002 17.567 4.94423C16.9424 5.5688 16.9237 6.18513 16.9072 6.72896C16.8924 7.22133 16.8807 7.61024 16.4533 8.03761C16.0261 8.4648 15.6372 8.47652 15.1447 8.49153C14.6008 8.50801 13.9847 8.5265 13.3601 9.15089C12.7357 9.77547 12.717 10.3918 12.7006 10.9356C12.6857 11.428 12.674 11.8169 12.2466 12.2441C11.8195 12.6715 11.4304 12.6832 10.938 12.6982C10.3942 12.7147 9.77783 12.7334 9.15344 13.3577C8.52887 13.9821 8.51038 14.5985 8.49371 15.1423C8.47888 15.6347 8.46716 16.0238 8.03979 16.4509C7.61261 16.8783 7.22351 16.89 6.73114 16.905C6.18732 16.9215 5.57098 16.9402 4.94641 17.5648C4.32184 18.1892 4.30316 18.8057 4.28668 19.3495C4.27167 19.8419 4.25995 20.231 3.83258 20.6582C3.69525 20.7955 3.69525 21.0181 3.83258 21.1555C3.90125 21.224 3.99115 21.2584 4.08105 21.2584C4.17114 21.2584 4.26105 21.224 4.32971 21.1555C4.95428 20.5309 4.97296 19.9146 4.98944 19.3707C5.00446 18.8782 5.01617 18.4893 5.44354 18.0619C5.87091 17.6345 6.25983 17.6228 6.75238 17.6078C7.2962 17.5913 7.91254 17.5726 8.53693 16.9481C9.1615 16.3237 9.18018 15.7074 9.19666 15.1637C9.21149 14.6712 9.22339 14.2822 9.65057 13.8549C10.0778 13.4277 10.4667 13.416 10.9592 13.401C11.5031 13.3845 12.1194 13.3658 12.7438 12.7414C13.3682 12.117 13.3868 11.5007 13.4033 10.9569C13.4183 10.4645 13.4301 10.0754 13.8572 9.64821C14.2844 9.22102 14.6735 9.2093 15.1659 9.19429C15.7097 9.17781 16.326 9.15913 16.9504 8.53474C17.5748 7.91035 17.5935 7.29402 17.61 6.7502C17.6248 6.25783 17.6367 5.86873 18.0639 5.44154C18.4913 5.01436 18.8802 5.00246 19.3726 4.98763C19.9164 4.97115 20.5327 4.95247 21.1571 4.32808C21.2944 4.19075 21.2944 3.96809 21.1571 3.83076C21.02 3.69362 20.7973 3.69362 20.66 3.83076V3.83076Z" fill="black"/>
<path d="M22.8915 6.10747C22.7856 6.00163 22.6626 5.91942 22.5286 5.8632L22.6527 5.73906C23.2396 5.15221 23.5629 4.37181 23.5629 3.54179C23.5629 2.71178 23.2396 1.93138 22.6527 1.34453C21.4411 0.133102 19.4698 0.132919 18.2582 1.34453L18.1331 1.46959C18.078 1.3372 17.9973 1.21324 17.8898 1.10576C16.4141 -0.369888 14.0129 -0.369888 12.5372 1.10576L12.2803 1.36266C12.143 1.49998 12.1432 1.72264 12.2803 1.85979C12.4177 1.99712 12.6403 1.99712 12.7776 1.85979L13.0344 1.60307C14.2359 0.401352 16.1909 0.401535 17.3926 1.60289C17.5598 1.77025 17.56 2.04253 17.3928 2.20988L16.8691 2.73357C16.5659 2.49388 16.2686 2.37889 15.967 2.38127C15.3869 2.38969 14.9674 2.84178 14.5974 3.24059C14.5135 3.33122 14.4342 3.41655 14.3536 3.49712C14.295 3.55589 14.1747 3.57182 13.9834 3.59325C13.7159 3.62309 13.3828 3.66008 13.0543 3.90251C12.5171 4.29893 12.3104 4.65544 12.128 4.96983C12.0068 5.17876 11.902 5.3593 11.7036 5.55779C11.3584 5.90294 11.0837 6.03972 10.8182 6.17192C10.5703 6.29552 10.3138 6.42332 10.0466 6.69048C9.54053 7.19658 9.35321 7.66588 9.18805 8.07988C9.07874 8.35435 8.9837 8.59221 8.80554 8.80278C8.59497 8.98094 8.35693 9.07597 8.08264 9.18529C7.66864 9.35045 7.19934 9.53777 6.69324 10.0439C6.42609 10.311 6.29828 10.5676 6.17468 10.8155C6.04248 11.081 5.9057 11.3556 5.56055 11.7008C5.36206 11.8995 5.18152 12.004 4.9726 12.1252C4.65802 12.3076 4.3017 12.5143 3.90527 13.0517C3.66284 13.3801 3.62585 13.7131 3.59601 13.9808C3.57458 14.172 3.55847 14.2923 3.49988 14.3511C3.41931 14.4314 3.3338 14.5107 3.24335 14.5948C2.84454 14.9648 2.39246 15.3841 2.38403 15.9642C2.37982 16.266 2.49573 16.5633 2.73615 16.8666L2.21283 17.3899C2.13171 17.471 2.02405 17.5157 1.90942 17.5157C1.79462 17.5157 1.68695 17.471 1.60583 17.3899C0.404114 16.1883 0.404114 14.2331 1.60583 13.0316L11.621 3.01646C11.7583 2.87914 11.7583 2.65648 11.621 2.51933C11.4836 2.382 11.261 2.382 11.1238 2.51933L1.10852 12.5345C0.393677 13.2493 0 14.1996 0 15.2107C0 16.2217 0.393677 17.1722 1.10852 17.887C1.21436 17.9928 1.3374 18.0751 1.47144 18.1313L1.34729 18.2554C0.760437 18.8425 0.437073 19.6227 0.437073 20.4527C0.437073 21.2827 0.760437 22.0631 1.34729 22.6499C1.953 23.2558 2.74878 23.5587 3.54456 23.5587C4.34033 23.5587 5.13593 23.2558 5.74182 22.6499L5.86615 22.5258C5.92218 22.6598 6.00439 22.7829 6.11023 22.8887C6.84814 23.6266 7.81732 23.9956 8.7865 23.9954C9.75568 23.9954 10.725 23.6264 11.4628 22.8887L11.7197 22.632C11.857 22.4947 11.857 22.272 11.7197 22.1347C11.5823 21.9974 11.3597 21.9975 11.2224 22.1347L10.9656 22.3916C9.7641 23.5931 7.80908 23.5931 6.60736 22.3916C6.52643 22.3105 6.48175 22.2026 6.48175 22.088C6.48175 21.9736 6.52625 21.8659 6.60699 21.7848L7.13068 21.2611C7.42841 21.4971 7.72046 21.6134 8.01654 21.6134C8.02203 21.6134 8.02753 21.6132 8.03302 21.6132C8.6131 21.6048 9.03259 21.1527 9.40265 20.7539C9.48651 20.6634 9.5658 20.5779 9.64636 20.4975C9.70514 20.4388 9.82526 20.4227 10.0166 20.4014C10.2841 20.3716 10.6174 20.3344 10.9457 20.0921C11.4829 19.6955 11.6896 19.3392 11.872 19.0246C11.9932 18.8157 12.098 18.6352 12.2964 18.4369C12.6416 18.0915 12.9163 17.9548 13.1818 17.8226C13.4299 17.699 13.6862 17.5713 13.9534 17.3042C14.4595 16.7979 14.6468 16.3288 14.812 15.9148C14.9214 15.6403 15.0163 15.4023 15.1945 15.1917C15.4052 15.0135 15.6431 14.9187 15.9174 14.8092C16.3314 14.644 16.8007 14.4567 17.3069 13.9506C17.5739 13.6835 17.7017 13.4271 17.8253 13.179C17.9575 12.9135 18.0943 12.639 18.4396 12.2937C18.6381 12.0952 18.8185 11.9905 19.0274 11.8692C19.342 11.6869 19.6983 11.4801 20.0949 10.9429C20.3372 10.6144 20.3743 10.2814 20.4042 10.0138C20.4254 9.82249 20.4415 9.70219 20.5003 9.6436C20.5807 9.56303 20.6662 9.48375 20.7567 9.39989C21.1555 9.02983 21.6075 8.61034 21.616 8.03026C21.6204 7.7285 21.5043 7.43114 21.2639 7.12791L21.787 6.60497C21.787 6.60478 21.7872 6.60478 21.7872 6.60478C21.8683 6.52367 21.9761 6.47881 22.0908 6.47881C22.2054 6.47881 22.3132 6.52348 22.3943 6.60478C23.5959 7.80632 23.5959 9.76134 22.3943 10.9629L12.379 20.978C12.2417 21.1153 12.2417 21.338 12.379 21.4753C12.4477 21.5438 12.5378 21.5782 12.6277 21.5782C12.7176 21.5782 12.8077 21.5438 12.8762 21.4753L22.8915 11.4602C23.6063 10.7452 24 9.79485 24 8.78374C24 7.77281 23.6063 6.82231 22.8915 6.10747V6.10747ZM3.72162 15.11C3.81281 15.0254 3.9071 14.9379 3.99701 14.848C4.23303 14.6122 4.26581 14.3181 4.29474 14.0586C4.31946 13.8369 4.3407 13.6456 4.47107 13.469C4.7807 13.0492 5.03302 12.9029 5.32544 12.7333C5.54517 12.6059 5.79419 12.4614 6.05768 12.1979C6.48395 11.7717 6.66156 11.4153 6.8042 11.129C6.91589 10.9045 7.00433 10.7272 7.19037 10.541C7.5943 10.1371 7.95795 9.99205 8.3432 9.83824C8.65668 9.71318 8.98077 9.58391 9.28638 9.31657C9.2981 9.30632 9.30908 9.29533 9.31934 9.28343C9.58685 8.97783 9.71613 8.65373 9.84119 8.34026C9.99481 7.95518 10.14 7.59154 10.5439 7.18761C10.73 7.00157 10.9072 6.91313 11.1319 6.80144C11.4181 6.65862 11.7744 6.48119 12.2009 6.05492C12.4644 5.79143 12.6088 5.5424 12.7363 5.32249C12.9056 5.03044 13.0521 4.77794 13.4718 4.46812C13.6483 4.33794 13.8397 4.3167 14.0614 4.29198C14.3209 4.26305 14.6149 4.23027 14.851 3.99406C14.9407 3.90434 15.0282 3.81004 15.1128 3.71886C15.4136 3.39458 15.6978 3.08842 15.9772 3.0844C16.0944 3.08055 16.2239 3.1331 16.3678 3.23509L3.23785 16.365C3.13605 16.2211 3.08551 16.0906 3.08716 15.9745C3.09119 15.6951 3.39752 15.4109 3.72162 15.11V15.11ZM20.2784 8.88445C20.1872 8.96904 20.0929 9.05656 20.003 9.14629V9.14647C19.767 9.38249 19.7342 9.67656 19.7053 9.93584C19.6805 10.1576 19.6593 10.3491 19.5291 10.5254C19.2193 10.9453 18.967 11.0916 18.6747 11.2612C18.4548 11.3886 18.2058 11.5331 17.9423 11.7966C17.5161 12.2228 17.3384 12.5791 17.196 12.8655C17.0841 13.09 16.9957 13.2674 16.8096 13.4535C16.4057 13.8574 16.0421 14.0026 15.6568 14.1562C15.3433 14.2813 15.0192 14.4106 14.7136 14.6779C14.7019 14.6882 14.6909 14.6991 14.6807 14.711C14.4131 15.0166 14.2839 15.3407 14.1588 15.6542C14.0052 16.0393 13.86 16.4031 13.4561 16.8069C13.27 16.9931 13.0928 17.0813 12.8681 17.1932C12.5819 17.3359 12.2256 17.5133 11.7991 17.9396C11.5356 18.203 11.3912 18.4523 11.2637 18.672C11.0944 18.9642 10.9479 19.2165 10.5282 19.5264C10.3517 19.6565 10.1603 19.6778 9.9386 19.7025C9.67914 19.7314 9.38507 19.7642 9.14905 20.0002C9.05933 20.0901 8.9718 20.1844 8.88721 20.2756C8.58636 20.5999 8.30219 20.9061 8.02277 20.9101C7.90594 20.913 7.77612 20.8614 7.6322 20.7596L20.7621 7.62962C20.864 7.77336 20.9145 7.9041 20.9128 8.02019C20.9088 8.29942 20.6027 8.5836 20.2784 8.88445V8.88445ZM22.1556 5.24174L5.24469 22.1528C4.30719 23.0901 2.78192 23.0901 1.84442 22.1528C1.39032 21.6987 1.1402 21.095 1.1402 20.4527C1.1402 19.8105 1.39032 19.2068 1.84442 18.7527L18.7553 1.84166C19.2241 1.37309 19.8398 1.13872 20.4554 1.13872C21.0712 1.13872 21.6868 1.37309 22.1556 1.84166C22.6097 2.29594 22.8598 2.89964 22.8598 3.54179C22.8598 4.18394 22.6097 4.78764 22.1556 5.24174V5.24174Z" fill="black"/>
</g>
<defs>
<clipPath id="clip0">
<rect width="24" height="24" fill="white"/>
</clipPath>
</defs>
</svg>
