<svg width="24" height="24" viewBox="0 0 24 24" fill="none" xmlns="http://www.w3.org/2000/svg">
<path d="M20.3551 2.72955C14.3381 2.72955 8.89087 5.16852 4.94769 9.11151L19.3017 23.4655C19.6904 23.8542 20.3551 23.5789 20.3551 23.0292V2.72955Z" fill="#EFA335"/>
<path d="M17.6924 2.89105V21.8562L19.3017 23.4657C19.6904 23.8544 20.3551 23.579 20.3551 23.0294V2.72955C19.4535 2.72955 18.5651 2.78467 17.6924 2.89105V2.89105Z" fill="#FD8F31"/>
<path d="M18.8729 6.44293C18.8729 7.09497 18.3444 7.6236 17.6924 7.6236C17.0402 7.6236 16.5117 7.09497 16.5117 6.44293C16.5117 5.79089 17.0402 5.26227 17.6924 5.26227C18.3444 5.26227 18.8729 5.79089 18.8729 6.44293V6.44293Z" fill="#FC4E51"/>
<path d="M14.1412 13.9752C14.1412 14.5648 13.6633 15.0427 13.0737 15.0427C12.4841 15.0427 12.006 14.5648 12.006 13.9752C12.006 13.3856 12.4841 12.9075 13.0737 12.9075C13.6633 12.9075 14.1412 13.3856 14.1412 13.9752V13.9752Z" fill="#FC4E51"/>
<path d="M19.3152 13.8144C19.3152 14.4315 18.8148 14.9319 18.1976 14.9319C17.5805 14.9319 17.0801 14.4315 17.0801 13.8144C17.0801 13.1971 17.5805 12.6969 18.1976 12.6969C18.8148 12.6969 19.3152 13.1971 19.3152 13.8144V13.8144Z" fill="#FC4E51"/>
<path d="M17.8207 16.8479H17.5626C16.8922 16.8479 16.3489 17.3912 16.3489 18.0615C16.3489 18.2426 16.4956 18.3893 16.6765 18.3893H17.0037C17.0773 18.3893 17.1357 18.451 17.1319 18.5244L17.1048 19.034C17.0964 19.1913 17.2216 19.3235 17.3791 19.3235H18.004C18.1617 19.3235 18.2869 19.1913 18.2785 19.034L18.2514 18.5244C18.2476 18.451 18.306 18.3893 18.3796 18.3893H18.7068C18.8877 18.3893 19.0344 18.2426 19.0344 18.0615C19.0345 17.3914 18.4913 16.8479 17.8207 16.8479Z" fill="#DFEDE7"/>
<path d="M13.0737 9.29169V9.59601C13.0737 10.3861 13.7142 11.0266 14.5042 11.0266C14.7175 11.0266 14.8905 10.8536 14.8905 10.6403V10.2548C14.8905 10.168 14.9632 10.099 15.0498 10.1036L15.6504 10.1356C15.8359 10.1455 15.9915 9.99774 15.9915 9.81207V9.07562C15.9915 8.88995 15.8357 8.74219 15.6504 8.75208L15.0498 8.78412C14.9632 8.7887 14.8905 8.71967 14.8905 8.63287V8.24725C14.8905 8.03412 14.7175 7.86108 14.5042 7.86108C13.7142 7.86108 13.0737 8.50159 13.0737 9.29169Z" fill="#DFEDE7"/>
<path d="M19.8349 0.352112C19.7734 0.351562 19.7119 0.351196 19.6502 0.351196C13.2867 0.351196 7.52546 2.9306 3.35523 7.10083C3.34937 7.10669 3.34351 7.11255 3.33765 7.11841C2.85627 7.60089 2.857 8.39026 3.33894 8.87219L4.24146 9.7749C4.72834 10.2616 5.52467 10.2614 6.01118 9.77454L6.02015 9.76556C6.02253 9.763 6.02509 9.76044 6.02766 9.75787C6.44074 9.34534 7.11384 9.35687 7.5174 9.77893L9.35578 11.7017C9.60554 11.963 10.019 11.9676 10.2746 11.7122C10.5302 11.4565 10.535 11.0338 10.285 10.7725L8.96192 9.38837C8.71748 9.13257 8.70356 8.72479 8.94746 8.46845C9.20783 8.19489 9.64069 8.19708 9.89869 8.46698L10.3154 8.90259C10.5599 9.15839 10.9667 9.19043 11.2335 8.95825C11.5186 8.71051 11.536 8.27783 11.278 8.00812L10.9757 7.6919C10.4866 7.18048 10.6357 6.33856 11.2729 6.03058C13.8062 4.80615 16.648 4.11969 19.6502 4.11969C19.7071 4.11969 19.7642 4.12006 19.8212 4.12042C20.5091 4.12665 21.069 3.56854 21.069 2.88043V1.59357C21.0692 0.910767 20.5177 0.357971 19.8349 0.352112V0.352112Z" fill="#FCCF3F"/>
<path d="M19.8349 0.352112C19.7734 0.351562 19.7119 0.351196 19.6501 0.351196C19.22 0.351196 18.7927 0.363464 18.3684 0.386719V0.397156V4.16217C18.7921 4.13434 19.2195 4.11969 19.6501 4.11969C19.7073 4.11969 19.7642 4.12006 19.8212 4.12042C20.5091 4.12665 21.069 3.56854 21.069 2.88043V1.59357C21.0692 0.910767 20.5177 0.357971 19.8349 0.352112V0.352112Z" fill="#EFA335"/>
<path d="M19.838 0.000915525C19.7754 0.000366211 19.7127 0 19.6501 0C16.4919 0 13.428 0.61853 10.5434 1.83875C7.75742 3.01703 5.25547 4.70398 3.10636 6.85291L3.08897 6.87048C2.4697 7.49103 2.47044 8.50067 3.09061 9.12067L3.99314 10.0234C4.2949 10.3251 4.69718 10.4912 5.12602 10.4912H5.12638C5.55558 10.491 5.95786 10.3248 6.2598 10.0226L6.27592 10.0065C6.40519 9.87762 6.57676 9.80676 6.76005 9.80676H6.76847C6.95725 9.80896 7.13303 9.88531 7.26359 10.0217L9.10197 11.9447C9.28855 12.1399 9.53977 12.249 9.80912 12.2521H9.82047C10.0856 12.2521 10.3346 12.1489 10.523 11.9606C10.9131 11.5704 10.9204 10.9286 10.539 10.5298L9.21568 9.14575C9.09757 9.02216 9.09135 8.82697 9.20176 8.71088C9.26035 8.64935 9.33909 8.61548 9.4235 8.61548H9.42387C9.5081 8.61548 9.58665 8.64899 9.64488 8.70978L10.0614 9.14557C10.4414 9.54309 11.0575 9.57715 11.4642 9.22357C11.6746 9.04047 11.7975 8.78668 11.8103 8.50873C11.8229 8.23462 11.7215 7.96381 11.5318 7.7655L11.2297 7.44946C11.0742 7.28687 11.0081 7.06659 11.048 6.84521C11.0877 6.62549 11.2254 6.44385 11.4258 6.34717C14.0011 5.10242 16.7682 4.47125 19.6501 4.47125C19.7062 4.47125 19.762 4.47144 19.8178 4.47198C20.2458 4.47638 20.6457 4.3125 20.9487 4.01221C21.2528 3.71082 21.4202 3.3089 21.4202 2.8808V1.59357C21.4204 0.7229 20.7105 0.00842288 19.838 0.000915525V0.000915525ZM20.7178 2.88062C20.7178 3.11993 20.6242 3.3446 20.4543 3.51288C20.2853 3.68042 20.0608 3.77325 19.8243 3.76923C19.7662 3.76868 19.7084 3.76849 19.6501 3.76849C16.6615 3.76849 13.7915 4.4231 11.1202 5.71436C10.7151 5.90991 10.437 6.27649 10.3568 6.71997C10.2762 7.1651 10.4093 7.60785 10.7217 7.93469L11.024 8.25073C11.0823 8.31171 11.1123 8.39191 11.1084 8.47614C11.1046 8.56036 11.0672 8.63763 11.0032 8.6933C10.8821 8.79858 10.6875 8.78357 10.5692 8.65997L10.1526 8.22418C9.9633 8.02625 9.69779 7.91272 9.42368 7.91272C9.42332 7.91272 9.42313 7.91272 9.42277 7.91272C9.14445 7.9129 8.88535 8.02441 8.69291 8.22638C8.32139 8.61658 8.32798 9.23364 8.70792 9.63098L10.0312 11.0151C10.1488 11.1381 10.1464 11.3434 10.0263 11.4637C9.97007 11.5199 9.89518 11.549 9.81699 11.5496C9.73826 11.5486 9.66465 11.5164 9.60954 11.4591L7.77116 9.53613C7.50913 9.26202 7.15574 9.10858 6.77653 9.10419C6.77085 9.104 6.76536 9.104 6.75987 9.104C6.38908 9.104 6.04154 9.24756 5.78043 9.5083L5.77494 9.51379L5.77128 9.51727L5.76267 9.52606C5.59367 9.69525 5.36753 9.78845 5.1262 9.78845C5.1262 9.78845 5.1262 9.78845 5.12602 9.78845C4.88487 9.78845 4.65891 9.69543 4.48991 9.52643L3.5872 8.62372C3.24076 8.27728 3.24021 7.71332 3.58701 7.36578L3.60368 7.34912C5.68778 5.26483 8.11485 3.62842 10.8171 2.48547C13.6146 1.30225 16.5864 0.702393 19.6501 0.702393C19.7107 0.702393 19.7712 0.702576 19.8316 0.703125H19.8318C20.3203 0.70752 20.7178 1.10687 20.7178 1.59338V2.88062Z" fill="black"/>
<path d="M20.3551 5.36115C20.161 5.36115 20.0039 5.51843 20.0039 5.71234V23.0292C20.0039 23.194 19.8783 23.2588 19.8397 23.2747C19.8012 23.2906 19.6666 23.3337 19.5502 23.2172L7.19936 10.8664C7.06221 10.7292 6.83974 10.7292 6.70259 10.8664C6.56544 11.0035 6.56544 11.226 6.70259 11.3632L19.0534 23.714C19.2409 23.9015 19.4826 24 19.7318 24C19.8574 24 19.9851 23.9749 20.1087 23.9238C20.4772 23.7711 20.7063 23.4283 20.7063 23.0292V5.71234C20.7063 5.51843 20.549 5.36115 20.3551 5.36115V5.36115Z" fill="black"/>
<path d="M17.6924 4.91107C16.8475 4.91107 16.1603 5.59827 16.1603 6.44293C16.1603 7.2876 16.8475 7.97479 17.6924 7.97479C18.537 7.97479 19.2242 7.2876 19.2242 6.44293C19.2242 5.59827 18.537 4.91107 17.6924 4.91107ZM17.6924 7.2724C17.235 7.2724 16.8629 6.90033 16.8629 6.44293C16.8629 5.98553 17.235 5.61365 17.6924 5.61365C18.1496 5.61365 18.5217 5.98553 18.5217 6.44293C18.5217 6.90033 18.1496 7.2724 17.6924 7.2724Z" fill="black"/>
<path d="M11.6548 13.9752C11.6548 14.7574 12.2913 15.3939 13.0737 15.3939C13.856 15.3939 14.4924 14.7574 14.4924 13.9752C14.4924 13.1927 13.856 12.5563 13.0737 12.5563C12.2913 12.5563 11.6548 13.1927 11.6548 13.9752V13.9752ZM13.0737 13.2589C13.4687 13.2589 13.79 13.5802 13.79 13.9752C13.79 14.3701 13.4687 14.6915 13.0737 14.6915C12.6788 14.6915 12.3572 14.3701 12.3572 13.9752C12.3572 13.5802 12.6788 13.2589 13.0737 13.2589Z" fill="black"/>
<path d="M18.1978 12.3455C17.3879 12.3455 16.7289 13.0045 16.7289 13.8144C16.7289 14.6243 17.3879 15.2831 18.1978 15.2831C19.0076 15.2831 19.6664 14.6243 19.6664 13.8144C19.6664 13.0045 19.0074 12.3455 18.1978 12.3455ZM18.1978 14.5805C17.7751 14.5805 17.4315 14.2368 17.4315 13.8144C17.4315 13.3918 17.7751 13.0481 18.1978 13.0481C18.6202 13.0481 18.9639 13.3918 18.9639 13.8144C18.9639 14.2368 18.6202 14.5805 18.1978 14.5805Z" fill="black"/>
<path d="M19.3859 18.0615C19.3859 17.1985 18.6837 16.4965 17.8209 16.4965H17.5627C16.6998 16.4965 15.9976 17.1985 15.9976 18.0615C15.9976 18.436 16.3022 18.7405 16.6765 18.7405H16.7686L16.754 19.0153C16.745 19.1862 16.8073 19.3553 16.9248 19.4795C17.0425 19.6036 17.2083 19.6749 17.3793 19.6749H18.0042C18.1752 19.6749 18.3408 19.6036 18.4585 19.4795C18.5762 19.3553 18.6385 19.1862 18.6295 19.0153L18.6149 18.7405H18.707C19.0812 18.7407 19.3859 18.436 19.3859 18.0615V18.0615ZM18.3798 18.0381C18.2487 18.0381 18.1218 18.0927 18.0317 18.1877C17.9414 18.2829 17.8938 18.4125 17.9008 18.5431L17.9236 18.9723H17.4598L17.4827 18.5431C17.4897 18.4122 17.4419 18.2827 17.3516 18.1877C17.2615 18.0925 17.1346 18.0381 17.0037 18.0381H16.7005C16.713 17.5732 17.0949 17.1991 17.5627 17.1991H17.8209C18.2886 17.1991 18.6705 17.5732 18.683 18.0381H18.3798Z" fill="black"/>
<path d="M14.5042 7.50989C13.5216 7.50989 12.7224 8.30914 12.7224 9.29187V9.59601C12.7224 10.5786 13.5216 11.3778 14.5042 11.3778C14.9108 11.3778 15.2417 11.0471 15.2417 10.6404V10.4658L15.6317 10.4865C15.8163 10.4965 15.9983 10.4291 16.1321 10.3022C16.266 10.1752 16.3427 9.99664 16.3427 9.81226V9.07562C16.3427 8.89124 16.266 8.71252 16.1321 8.58563C15.9983 8.45874 15.8154 8.39154 15.6317 8.40143L15.2417 8.42212V8.24744C15.2417 7.84076 14.911 7.50989 14.5042 7.50989ZM15.6403 9.10437V9.78333L15.0685 9.75293C14.931 9.74597 14.7957 9.79559 14.696 9.89008C14.5964 9.98456 14.5391 10.1175 14.5391 10.2548V10.6403C14.5391 10.6597 14.5236 10.6752 14.5043 10.6752C13.9091 10.6752 13.4249 10.1911 13.4249 9.59601V9.29169C13.4249 8.69659 13.9091 8.21228 14.5043 8.21228C14.5236 8.21228 14.5391 8.22803 14.5391 8.24725V8.63287C14.5391 8.7702 14.5964 8.90314 14.696 8.99762C14.7957 9.0921 14.9313 9.14172 15.0685 9.13458L15.6403 9.10437Z" fill="black"/>
</svg>
