<svg width="24" height="24" viewBox="0 0 24 24" fill="none" xmlns="http://www.w3.org/2000/svg">
<g clip-path="url(#clip0)">
<path d="M2.61872 18.2758H21.4619C21.6639 18.1414 22.7307 16.4279 22.5607 15.6742C22.3888 14.9117 22.8673 13.9065 22.5644 13.1968C22.2617 12.4876 21.5222 12.2151 21.0961 11.5761C20.6755 10.9451 20.7709 9.82123 20.2371 9.27539C19.7014 8.72736 18.6533 8.87768 18.0421 8.45544C17.4232 8.02789 17.1187 6.94556 16.4392 6.65405C15.7596 6.36255 14.8401 6.91992 14.1165 6.77161C13.4018 6.62512 12.7415 5.74182 11.9999 5.74182C11.2586 5.74182 10.5983 6.62512 9.88361 6.77161C9.15998 6.91992 8.24042 6.36255 7.56092 6.65405C6.88142 6.94556 6.57691 8.02789 5.95802 8.45544C5.34681 8.87768 4.29871 8.72736 3.76295 9.27539C3.2292 9.82123 3.32459 10.9451 2.904 11.5761C2.47791 12.2151 1.73817 12.4876 1.43568 13.1968C1.13282 13.9065 1.61128 14.9117 1.43934 15.6742C1.26924 16.4279 2.41657 18.1414 2.61872 18.2758V18.2758Z" fill="#A0E557"/>
<path d="M8.99872 8.72626C7.44855 7.17609 4.8783 7.23322 3.25781 8.8537C1.63733 10.4742 1.5802 13.0444 3.13037 14.5946C4.68054 16.1448 7.25079 16.0876 8.87127 14.4672C10.4918 12.8467 10.5487 10.2764 8.99872 8.72626Z" fill="#FD8F31"/>
<path d="M5.88389 14.2608C5.22471 14.2608 4.6135 14.0127 4.16288 13.5621C3.18454 12.5837 3.24167 10.9347 4.29032 9.88623C4.82297 9.35358 5.51731 9.06006 6.24534 9.06006C6.9047 9.06006 7.51572 9.30817 7.96635 9.75879C8.43162 10.2241 8.67936 10.8558 8.66435 11.538C8.6486 12.2444 8.35545 12.9181 7.83891 13.4346C7.30625 13.9675 6.61191 14.2608 5.88389 14.2608Z" fill="#EFA335"/>
<path d="M20.742 8.85369C19.1215 7.23321 16.5513 7.17626 15.0011 8.72625C13.4509 10.2764 13.5081 12.8467 15.1285 14.4672C16.749 16.0876 19.3193 16.1448 20.8695 14.5946C22.4194 13.0444 22.3625 10.4742 20.742 8.85369V8.85369Z" fill="#FD8F31"/>
<path d="M18.116 14.2608C18.7754 14.2608 19.3866 14.0127 19.8371 13.5621C20.8154 12.5837 20.7583 10.9347 19.7096 9.88623C19.177 9.35358 18.4828 9.06006 17.7548 9.06006C17.0954 9.06006 16.4842 9.30817 16.0338 9.75879C15.5685 10.2241 15.3206 10.8558 15.3358 11.538C15.3513 12.2444 15.6445 12.9181 16.1612 13.4346C16.6939 13.9675 17.388 14.2608 18.116 14.2608V14.2608Z" fill="#EFA335"/>
<path d="M5.22839 15.9483C5.07293 14.8859 3.85895 14.1841 2.51697 14.3807C1.17499 14.5772 0.213135 15.5977 0.368591 16.6599C0.524231 17.7222 1.73822 18.4241 3.0802 18.2274C4.42218 18.031 5.38403 17.0105 5.22839 15.9483Z" fill="#FC4E51"/>
<path d="M21.4855 14.3796C20.1436 14.1831 18.9296 14.885 18.7739 15.9472C18.6185 17.0094 19.5801 18.0298 20.9221 18.2265C22.2643 18.4229 23.4783 17.7211 23.6337 16.6589C23.7894 15.5965 22.8275 14.5761 21.4855 14.3796V14.3796Z" fill="#FC4E51"/>
<path d="M14.3302 8.73083C14.3302 7.83527 13.2869 7.10944 12 7.10944C10.7131 7.10944 9.6698 7.83527 9.6698 8.73083C9.6698 9.62622 10.7131 10.3522 12 10.3522C13.2869 10.3522 14.3302 9.62622 14.3302 8.73083Z" fill="#FC4E51"/>
<path d="M12 8.1947C6.59511 8.1947 2.18355 12.4484 1.9305 17.7907C1.91805 18.0551 2.131 18.2756 2.39558 18.2756H21.6046C21.8692 18.2756 22.0822 18.0551 22.0695 17.7907C21.8165 12.4484 17.4051 8.1947 12 8.1947V8.1947Z" fill="#FCCF3F"/>
<path d="M12 8.1947C11.5422 8.1947 11.092 8.22583 10.6503 8.28497C15.5793 8.94507 19.3808 13.1662 19.3808 18.2758H21.6046C21.8692 18.2758 22.0821 18.0551 22.0695 17.7907C21.8164 12.4484 17.4051 8.1947 12 8.1947V8.1947Z" fill="#EFA335"/>
<path d="M23.375 14.954C23.2455 14.8167 23.1003 14.6927 22.9429 14.5822C23.0159 14.0676 23.0908 13.5357 22.8874 13.0589C22.7486 12.7335 22.5395 12.4922 22.3201 12.2858C22.4511 10.9801 21.9959 9.61066 20.9904 8.60541C20.1542 7.76898 19.0555 7.28833 17.8967 7.25153C16.8057 7.2171 15.7765 7.57874 14.9745 8.27344C14.8403 8.23352 14.7048 8.1969 14.5687 8.16248C14.2362 7.33722 13.1998 6.75824 11.9999 6.75824C10.8002 6.75824 9.76368 7.33722 9.43116 8.16248C9.29511 8.1969 9.15979 8.23352 9.0254 8.27344C8.22358 7.57874 7.19434 7.21692 6.1034 7.25153C4.94453 7.28833 3.84571 7.76898 3.00947 8.60541C2.00404 9.61084 1.54884 10.9801 1.67976 12.2858C1.46058 12.4922 1.25129 12.7337 1.1125 13.0589C0.909065 13.5357 0.984139 14.0676 1.05701 14.5822C0.899544 14.6927 0.754341 14.8167 0.624886 14.954C0.144051 15.4642 -0.0707316 16.0878 0.0204549 16.71C0.156502 17.6396 0.983955 18.3801 2.08588 18.5651C2.18348 18.605 2.28858 18.6268 2.39552 18.6268H21.6044C21.7113 18.6268 21.8164 18.605 21.914 18.5651C23.0161 18.3799 23.8434 17.6396 23.9794 16.71C24.0706 16.0878 23.8558 15.4642 23.375 14.954V14.954ZM17.8743 7.95355C18.8541 7.98468 19.7843 8.39246 20.4938 9.10199C21.6813 10.2894 21.9664 12.0712 21.2601 13.4641C21.1118 13.1794 20.9505 12.9012 20.7758 12.6308C20.9944 11.8674 20.8875 11.0314 20.4728 10.3092C20.3761 10.1411 20.1615 10.0831 19.9932 10.1796C19.8251 10.2762 19.7671 10.4908 19.8638 10.6591C20.0703 11.0187 20.1776 11.4135 20.1835 11.8046C20.1644 11.7805 20.1448 11.7565 20.1254 11.7325C20.1113 11.7149 20.0972 11.697 20.0829 11.6796C20.0569 11.6477 20.0306 11.6164 20.0042 11.5849C19.9751 11.5501 19.9458 11.5153 19.9163 11.4807C19.9004 11.4622 19.8843 11.4439 19.8682 11.4254C19.8272 11.3784 19.7858 11.3315 19.7438 11.2852C19.736 11.2765 19.7281 11.2679 19.7202 11.2592C19.6695 11.2035 19.6182 11.1482 19.5662 11.0934C19.5649 11.092 19.5635 11.0905 19.562 11.089C19.2202 10.7294 18.8536 10.3945 18.4645 10.0871C18.4586 10.0825 18.4528 10.0776 18.4467 10.073C18.3967 10.0336 18.346 9.99481 18.2953 9.95636C18.2784 9.94372 18.2618 9.93054 18.2449 9.91809C18.2169 9.89703 18.1885 9.87671 18.1603 9.85602C17.9527 9.70367 17.7403 9.55957 17.5233 9.42371C17.5993 9.41583 17.6764 9.41144 17.7546 9.41144C18.1254 9.41144 18.4824 9.49676 18.816 9.66522C18.8669 9.69086 18.921 9.70294 18.9741 9.70294C19.1024 9.70294 19.226 9.63226 19.2879 9.50995C19.3752 9.33673 19.3058 9.12561 19.1326 9.03827C18.7 8.81982 18.2363 8.70904 17.7546 8.70904C17.3712 8.70904 16.9916 8.78613 16.6461 8.93225C16.3606 8.78998 16.0691 8.66125 15.7721 8.54608C16.3813 8.13721 17.1093 7.92938 17.8743 7.95355ZM11.9999 7.46063C12.6252 7.46063 13.1984 7.65564 13.5651 7.96069C13.5053 7.95172 13.4454 7.94348 13.3853 7.93542C13.3758 7.93414 13.3665 7.93286 13.3569 7.93176C13.2998 7.92425 13.2427 7.91711 13.1854 7.91071C13.1722 7.90924 13.1588 7.90796 13.1455 7.90649C13.0365 7.89459 12.9272 7.88415 12.8175 7.87573C12.8063 7.87482 12.795 7.87372 12.7836 7.87299C12.7457 7.87006 12.7078 7.86786 12.6699 7.86548C12.6304 7.86291 12.5906 7.86035 12.5509 7.85834C12.5178 7.85669 12.4844 7.85504 12.4513 7.85376C12.4033 7.85156 12.3554 7.84991 12.3074 7.84845C12.2806 7.84772 12.2537 7.8468 12.227 7.84625C12.1514 7.8446 12.0757 7.84351 11.9999 7.84351C11.9243 7.84351 11.8487 7.8446 11.7729 7.84625C11.7462 7.8468 11.7194 7.84772 11.6927 7.84845C11.6445 7.84991 11.5967 7.85156 11.5488 7.85376C11.5154 7.85504 11.4821 7.85669 11.449 7.85834C11.4092 7.86053 11.3697 7.86291 11.3301 7.86548C11.2921 7.86786 11.2542 7.87006 11.2163 7.87299C11.2054 7.87372 11.1945 7.87482 11.1837 7.87555C11.0734 7.88415 10.9636 7.89459 10.8541 7.90649C10.8411 7.90796 10.8279 7.90924 10.8147 7.91071C10.7574 7.9173 10.7001 7.92444 10.6428 7.93176C10.6334 7.93304 10.6243 7.93414 10.6149 7.93542C10.5549 7.94348 10.4948 7.95172 10.4349 7.96069C10.8017 7.65564 11.3748 7.46063 11.9999 7.46063V7.46063ZM3.50623 9.10199C4.21558 8.39246 5.14594 7.98468 6.12556 7.95355C6.16566 7.95227 6.20557 7.95172 6.24549 7.95172C6.96656 7.95172 7.65082 8.15863 8.22779 8.54626C7.93079 8.66125 7.63929 8.78998 7.35383 8.93225C7.00831 8.78613 6.62891 8.70904 6.24531 8.70904C5.76154 8.70904 5.29627 8.82074 4.86195 9.04101C4.68909 9.12854 4.61988 9.34003 4.70759 9.51288C4.76948 9.63501 4.89307 9.70532 5.02106 9.70532C5.07453 9.70532 5.12873 9.69305 5.17963 9.66724C5.51453 9.4975 5.87287 9.41144 6.24531 9.41144C6.32349 9.41144 6.40058 9.41583 6.47657 9.42371C6.25995 9.5592 6.04792 9.70312 5.84083 9.85492C5.81208 9.87598 5.78315 9.89685 5.75477 9.91809C5.7381 9.93054 5.72181 9.94336 5.70533 9.95581C5.65424 9.99444 5.60334 10.0334 5.55298 10.073C5.54713 10.0776 5.54145 10.0823 5.53559 10.0869C5.14649 10.3943 4.77973 10.7292 4.43787 11.089C4.43641 11.0905 4.43513 11.092 4.43366 11.0934C4.38166 11.1482 4.33039 11.2035 4.27967 11.2593C4.2718 11.2679 4.26392 11.2765 4.25605 11.2852C4.21412 11.3315 4.17274 11.3784 4.13172 11.4254C4.11579 11.4439 4.09949 11.4622 4.08356 11.4807C4.05408 11.5153 4.02479 11.5501 3.99567 11.5851C3.96931 11.6164 3.94294 11.6477 3.91712 11.6794C3.90266 11.697 3.88856 11.7149 3.87427 11.7327C3.85487 11.7567 3.83546 11.7805 3.81641 11.8044C3.82227 11.4142 3.92921 11.0206 4.13483 10.6615C4.23115 10.4932 4.17292 10.2786 4.00465 10.1823C3.83637 10.086 3.62177 10.1442 3.52528 10.3125C3.11219 11.0338 3.00599 11.8687 3.22407 12.6308C3.04938 12.9012 2.88807 13.1794 2.73975 13.4641C2.03352 12.0712 2.31879 10.2894 3.50623 9.10199ZM1.77937 16.1774C1.77515 16.1981 1.77076 16.2187 1.76655 16.2396C1.75886 16.2794 1.75135 16.3193 1.74384 16.3592C1.73725 16.3943 1.73103 16.4297 1.7248 16.465C1.71894 16.4987 1.7129 16.5324 1.7074 16.5663C1.69642 16.6333 1.6858 16.7003 1.67609 16.7675C1.67335 16.7864 1.67097 16.8054 1.6684 16.8243C1.66071 16.8799 1.65321 16.9358 1.64643 16.9916C1.64332 17.0165 1.64039 17.0414 1.63764 17.0663C1.63123 17.1213 1.62537 17.1764 1.61988 17.2315C1.61787 17.2513 1.61585 17.2709 1.61402 17.2906C1.60706 17.3641 1.60084 17.4375 1.59553 17.5113C1.59443 17.5278 1.59351 17.5442 1.59241 17.5607C1.58967 17.5999 1.58692 17.6391 1.58472 17.6783C1.10828 17.4465 0.781258 17.0588 0.71534 16.6082C0.656014 16.203 0.805428 15.7866 1.13612 15.4358C1.26795 15.2961 1.42158 15.1734 1.59241 15.0701C1.60303 15.0648 1.61311 15.0591 1.62299 15.0527C1.78614 14.9575 1.96375 14.8791 2.15272 14.8207C1.99799 15.2626 1.87348 15.7156 1.77937 16.1774V16.1774ZM1.71784 14.2299C1.67463 13.8878 1.65668 13.5732 1.75849 13.3347C1.78632 13.2697 1.81928 13.2087 1.85682 13.1504C1.95716 13.4685 2.09522 13.7763 2.27265 14.0671C2.08076 14.1061 1.89509 14.1606 1.71784 14.2299ZM21.7172 17.8306C21.7166 17.8336 21.7159 17.8365 21.7152 17.8392C21.7142 17.8429 21.7131 17.8462 21.712 17.8495C21.7007 17.8797 21.6772 17.9013 21.6556 17.9121C21.6549 17.9125 21.6542 17.9128 21.6534 17.9132C21.6401 17.9196 21.6241 17.9246 21.6046 17.9246H2.39552C2.37592 17.9246 2.35981 17.9196 2.34663 17.9132C2.34589 17.9128 2.34516 17.9125 2.34443 17.9121C2.32282 17.9013 2.2992 17.8797 2.28803 17.8495C2.28675 17.8462 2.28565 17.8429 2.28474 17.8394C2.284 17.8365 2.28345 17.8336 2.28291 17.8306C2.28162 17.8235 2.28089 17.8158 2.28126 17.8076V17.8074C2.28474 17.7325 2.28931 17.6576 2.29462 17.5829C2.29627 17.558 2.29865 17.5333 2.30048 17.5085C2.30433 17.4587 2.30836 17.4091 2.31293 17.3595C2.31568 17.3289 2.31916 17.2983 2.32227 17.2679C2.32667 17.2245 2.33125 17.1813 2.33619 17.1381C2.34022 17.1041 2.34461 17.07 2.34901 17.0359C2.35395 16.9969 2.35889 16.9579 2.3642 16.9191C2.36951 16.8816 2.37519 16.8441 2.38087 16.8065C2.38599 16.7725 2.3913 16.7384 2.3968 16.7042C2.40357 16.6622 2.41071 16.6203 2.41804 16.5784C2.42298 16.5504 2.42811 16.5225 2.43323 16.4947C2.44202 16.4469 2.45118 16.3991 2.4607 16.3517C2.46473 16.3317 2.46876 16.3119 2.47297 16.292C2.48432 16.2367 2.49604 16.1812 2.50867 16.1261C2.51051 16.1175 2.51252 16.1091 2.51453 16.1005C2.63978 15.5528 2.81263 15.0163 3.03272 14.495C3.0362 14.4869 3.03858 14.4785 3.04133 14.4701C3.05836 14.4302 3.07593 14.3904 3.09351 14.3507C3.09644 14.345 3.09974 14.3397 3.1023 14.334C3.41688 13.6249 3.81238 12.9626 4.27601 12.3578C4.28315 12.3483 4.29029 12.3389 4.29743 12.3296C4.33625 12.2796 4.37562 12.2302 4.41517 12.1809C4.43092 12.1613 4.44648 12.1415 4.46241 12.1221C4.49061 12.0877 4.51917 12.0538 4.54792 12.0198C4.57484 11.9877 4.60157 11.9553 4.62922 11.9235C4.63599 11.9156 4.64295 11.9079 4.64973 11.9C4.8473 11.6728 5.05604 11.4536 5.27595 11.2432C5.38856 11.1354 5.50355 11.0306 5.62037 10.929C5.6222 10.9275 5.62385 10.9259 5.62568 10.9244C5.6786 10.8783 5.73225 10.8331 5.78608 10.7882C5.7967 10.7796 5.80732 10.7706 5.81794 10.762C5.86481 10.7234 5.91205 10.6853 5.95948 10.6476C5.97944 10.6318 5.9994 10.6161 6.01935 10.6005C6.05909 10.5694 6.099 10.5386 6.13929 10.5082C6.17078 10.4844 6.20246 10.461 6.23414 10.4377C6.26435 10.4154 6.29456 10.3931 6.32496 10.3711C6.37421 10.3358 6.42383 10.301 6.47364 10.2665C6.48792 10.2567 6.50202 10.2468 6.5163 10.2369C7.28773 9.71008 8.13807 9.29224 9.0448 9.00348C9.04883 9.0022 9.0525 9.00037 9.05634 8.9989C9.29456 8.92346 9.53608 8.85754 9.78016 8.80078C9.78107 8.80041 9.78217 8.80041 9.78309 8.80023C11.2314 8.46258 12.7688 8.46258 14.2172 8.80023C14.2183 8.80041 14.2194 8.80041 14.2205 8.80078C14.4644 8.85754 14.7057 8.92346 14.9439 8.9989C14.9478 9.00018 14.9514 9.0022 14.9554 9.0033C15.8622 9.29224 16.7125 9.71008 17.484 10.2369C17.4982 10.2466 17.5123 10.2567 17.5266 10.2665C17.5764 10.301 17.626 10.3358 17.6753 10.3711C17.7057 10.3931 17.7359 10.4154 17.7661 10.4376C17.7978 10.461 17.8295 10.4844 17.861 10.5082C17.9012 10.5386 17.9412 10.5694 17.9809 10.6005C18.0009 10.6161 18.0208 10.6317 18.0408 10.6476C18.0882 10.6851 18.1354 10.7234 18.1823 10.762C18.1929 10.7706 18.2036 10.7794 18.2142 10.7882C18.268 10.8331 18.3215 10.8783 18.3746 10.9244C18.3764 10.9259 18.3781 10.9274 18.3799 10.929C18.4967 11.0306 18.6117 11.1354 18.7243 11.243C18.9442 11.4534 19.153 11.6728 19.3505 11.9C19.3573 11.9079 19.3643 11.9156 19.371 11.9235C19.3987 11.9553 19.4252 11.9875 19.4523 12.0198C19.4811 12.0538 19.5096 12.0877 19.5378 12.1221C19.5538 12.1415 19.5693 12.1613 19.5851 12.1809C19.6246 12.2302 19.664 12.2796 19.7028 12.3296C19.71 12.3389 19.7171 12.3483 19.7242 12.3576C20.1881 12.9626 20.5834 13.6247 20.898 14.3339C20.9005 14.3397 20.9038 14.345 20.9067 14.3507C20.9243 14.3904 20.9419 14.4302 20.9589 14.4701C20.9617 14.4783 20.9641 14.4868 20.9675 14.495C21.1876 15.0163 21.3605 15.5528 21.4857 16.1006C21.4877 16.1091 21.4897 16.1175 21.4916 16.1259C21.504 16.1812 21.5159 16.2367 21.5273 16.2922C21.5315 16.3119 21.5355 16.3317 21.5396 16.3515C21.5491 16.3991 21.5582 16.4469 21.567 16.4947C21.5721 16.5225 21.5773 16.5504 21.582 16.5782C21.5895 16.6203 21.5967 16.6622 21.6035 16.7043C21.6089 16.7384 21.6143 16.7723 21.6194 16.8063C21.6251 16.8441 21.6307 16.8816 21.6359 16.9193C21.6414 16.9579 21.6463 16.9969 21.6512 17.0358C21.6556 17.0698 21.66 17.1039 21.6641 17.1381C21.669 17.1811 21.6734 17.2245 21.678 17.2678C21.6811 17.2983 21.6844 17.3289 21.6873 17.3595C21.6919 17.4091 21.6957 17.4587 21.6996 17.5084C21.7016 17.5333 21.7038 17.558 21.7056 17.5829C21.7108 17.6576 21.7153 17.7325 21.719 17.8074C21.7192 17.8158 21.7183 17.8233 21.7172 17.8306V17.8306ZM21.7278 14.0663C21.9048 13.7759 22.0429 13.4683 22.1433 13.1504C22.1806 13.2087 22.2137 13.2697 22.2414 13.3347C22.3432 13.5732 22.3254 13.8876 22.2822 14.2295C22.278 14.2278 22.2734 14.2266 22.2692 14.2249C22.2218 14.2066 22.1736 14.1894 22.1249 14.1733C22.1127 14.1691 22.1004 14.1649 22.088 14.1608C22.0345 14.1438 21.9805 14.1277 21.9257 14.113C21.9142 14.1099 21.9025 14.1074 21.8909 14.1044C21.8459 14.0929 21.8007 14.0825 21.7549 14.0728C21.7457 14.0707 21.7369 14.0682 21.7278 14.0663ZM23.2845 16.6082C23.2186 17.0588 22.8916 17.4465 22.4153 17.6783C22.4131 17.6391 22.4102 17.5999 22.4077 17.5609C22.4066 17.5442 22.4055 17.5278 22.4044 17.5111C22.399 17.4375 22.3928 17.3641 22.386 17.2906C22.3842 17.2709 22.382 17.2511 22.38 17.2313C22.3745 17.1764 22.3687 17.1215 22.3624 17.0665C22.3595 17.0414 22.3566 17.0165 22.3535 16.9915C22.3467 16.9358 22.3394 16.8803 22.3317 16.8248C22.3291 16.8056 22.3267 16.7866 22.3238 16.7675C22.3141 16.7003 22.3037 16.6333 22.2925 16.5665C22.287 16.5324 22.2809 16.4987 22.2751 16.4648C22.2689 16.4297 22.2626 16.3945 22.256 16.3594C22.2487 16.3195 22.2412 16.2794 22.2333 16.2394C22.2291 16.2189 22.2249 16.1984 22.2207 16.1781C22.1266 15.7163 22.0021 15.2635 21.8474 14.8218C21.8609 14.826 21.8745 14.8304 21.8878 14.8348C21.9107 14.8422 21.9334 14.85 21.9561 14.8579C21.9819 14.8672 22.0078 14.8768 22.0332 14.8868C22.0464 14.892 22.0592 14.8975 22.0722 14.9028C22.1806 14.9478 22.2855 14.9994 22.386 15.0588C22.3903 15.0613 22.395 15.0632 22.3994 15.0655C22.5734 15.1697 22.7301 15.2939 22.864 15.436C23.1945 15.7866 23.3439 16.203 23.2845 16.6082V16.6082Z" fill="black"/>
<path d="M8.00427 6.91955C8.22528 6.91552 8.47742 6.96954 8.74439 7.02612C9.02967 7.08654 9.32172 7.14843 9.61194 7.14843C9.72657 7.14843 9.84082 7.13891 9.95417 7.11566C10.3477 7.03491 10.6956 6.79321 11.0319 6.55957C11.3773 6.31952 11.7036 6.09302 12 6.09302C12.2966 6.09302 12.6227 6.3197 12.9683 6.55957C13.3046 6.79321 13.6525 7.03491 14.046 7.11566C14.4465 7.19769 14.8579 7.11053 15.2558 7.02612C15.5484 6.96405 15.8249 6.90564 16.0596 6.92248C16.2526 6.9364 16.4213 6.79065 16.435 6.5971C16.4489 6.40375 16.3034 6.23565 16.1098 6.22174C15.7762 6.19794 15.4376 6.26971 15.1102 6.33911C14.7676 6.41162 14.4439 6.4801 14.187 6.42755C13.9347 6.37591 13.6599 6.18493 13.3689 5.98279C12.95 5.69165 12.5165 5.39062 12 5.39062C11.4836 5.39062 11.0502 5.69165 10.6313 5.98279C10.3403 6.18493 10.0655 6.37591 9.81317 6.42755C9.55628 6.48028 9.23255 6.41162 8.88996 6.33911C8.5968 6.27685 8.29303 6.21295 7.99347 6.21734C7.79956 6.22046 7.64465 6.38012 7.64777 6.57403C7.6507 6.76794 7.81128 6.92303 8.00427 6.91955V6.91955Z" fill="black"/>
</g>
<defs>
<clipPath id="clip0">
<rect width="24" height="24" fill="white"/>
</clipPath>
</defs>
</svg>
